<svg xmlns="http://www.w3.org/2000/svg" width="819.609" height="414.12"><style>.st0{fill:none;stroke:#00a8d6;stroke-width:4.1363;stroke-miterlimit:10}.st1{fill:#00a8d6}.st2,.st3,.st4{fill:#faa31b;stroke:#333;stroke-width:2;stroke-linejoin:round;stroke-miterlimit:10}.st3,.st4{fill:none}.st4{fill:#fff;stroke-linecap:round}.st5{fill:#faa31b}.st6,.st7,.st8{fill:none;stroke:#333;stroke-width:2;stroke-miterlimit:10}.st7,.st8{fill:#faa31b;stroke-width:1.8}.st8{fill:none;stroke:#00a8d6;stroke-width:4.1363}.st8,.st9{opacity:.7}.st10{fill:#333}.st11{stroke-linecap:round;stroke-miterlimit:10}.st11,.st12,.st14{fill:none;stroke:#333;stroke-width:2;stroke-linejoin:round}.st14{stroke-dasharray:3.3335,1.6667}</style><g id="Layer_1"><path d="M52.019 79.747h1.422v12.604h-1.422V79.747zM57.13 79.747h1.332l7.94 10.101V79.747h1.387v12.604h-1.134l-8.139-10.335v10.335H57.13V79.747zM71.35 79.747h4.717c2.845 0 4.717 1.513 4.717 3.998v.036c0 2.719-2.269 4.124-4.952 4.124h-3.061v4.447H71.35V79.747zm4.537 6.86c2.089 0 3.457-1.116 3.457-2.773v-.036c0-1.8-1.35-2.737-3.385-2.737h-3.187v5.546h3.115zM83.176 87.075v-7.329h1.422v7.238c0 2.719 1.458 4.25 3.853 4.25 2.323 0 3.799-1.405 3.799-4.159v-7.329h1.422v7.22c0 3.673-2.106 5.582-5.257 5.582-3.115.001-5.239-1.908-5.239-5.473zM100.366 81.061h-4.231v-1.314h9.903v1.314h-4.231v11.29h-1.44v-11.29zM114.1 79.747h4.375c3.961 0 6.698 2.719 6.698 6.266v.036c0 3.547-2.737 6.302-6.698 6.302H114.1V79.747zm1.422 1.314v9.975h2.953c3.187 0 5.222-2.161 5.222-4.952v-.036c0-2.791-2.035-4.988-5.222-4.988h-2.953zM132.011 79.657h1.333l5.744 12.694h-1.53l-1.477-3.331h-6.86l-1.495 3.331h-1.458l5.743-12.694zm3.511 8.066l-2.863-6.41-2.881 6.41h5.744zM143.278 81.061h-4.231v-1.314h9.903v1.314h-4.231v11.29h-1.44v-11.29zM154.655 79.657h1.333l5.744 12.694h-1.53l-1.477-3.331h-6.86l-1.495 3.331h-1.458l5.743-12.694zm3.511 8.066l-2.863-6.41-2.881 6.41h5.744zM211.106 21.803h2.705c1.873 0 3.394.528 4.37 1.489.8.8 1.216 1.856 1.216 3.217 0 1.712-.624 3.217-1.761 4.37-1.345 1.345-3.361 2.129-5.746 2.129h-3.794l3.01-11.205zm2.625 1.168h-1.665l-2.385 8.868h2.369c1.873 0 3.49-.624 4.626-1.761.896-.896 1.409-2.113 1.409-3.489 0-1.057-.336-1.889-.944-2.481-.737-.736-1.921-1.137-3.41-1.137zM227.14 21.723h1.216l2.081 11.285h-1.297l-.512-2.961h-6.114l-2.113 2.961h-1.393l8.132-11.285zm1.28 7.171l-1.008-5.73-4.098 5.73h5.106zM236.371 22.971h-3.777l.32-1.168h8.819l-.32 1.168h-3.777l-2.689 10.036h-1.265l2.689-10.036zM246.612 21.723h1.216l2.081 11.285h-1.297l-.512-2.961h-6.114l-2.113 2.961h-1.393l8.132-11.285zm1.28 7.171l-1.008-5.73-4.098 5.73h5.106zM211.106 41.003h3.505c1.409 0 2.481.336 3.202 1.041.512.528.8 1.216.8 2.081 0 1.073-.384 1.953-1.057 2.625-.944.96-2.529 1.472-4.466 1.472h-2.657l-1.072 3.986h-1.265l3.01-11.205zm3.457 1.169h-2.513l-1.312 4.93h2.417c1.569 0 2.753-.384 3.441-1.073.464-.464.705-1.072.705-1.825 0-.544-.16-.976-.512-1.328-.465-.464-1.217-.704-2.226-.704zM224.227 47.854H221.202l-1.168 4.354h-1.265l3.009-11.205h4.034c1.409 0 2.465.352 3.153 1.024.48.496.736 1.168.736 1.937 0 .976-.368 1.792-.992 2.433-.736.736-1.921 1.153-3.105 1.345l2.305 4.466h-1.457l-2.225-4.354zm.32-1.136c1.473 0 2.561-.4 3.186-1.024.432-.448.672-.977.672-1.633 0-.48-.16-.912-.464-1.216-.432-.432-1.136-.672-2.193-.672h-3.009l-1.232 4.546h3.04zM233.25 41.003h8.02l-.32 1.152h-6.755l-1.024 3.826h6.035l-.32 1.152h-6.018l-1.057 3.922h6.835l-.304 1.152h-8.1l3.008-11.204zM243.698 41.003h3.505c1.409 0 2.481.336 3.202 1.041.512.528.8 1.216.8 2.081 0 1.073-.384 1.953-1.057 2.625-.944.96-2.529 1.472-4.466 1.472h-2.657l-1.073 3.986h-1.265l3.011-11.205zm3.458 1.169h-2.513l-1.312 4.93h2.417c1.569 0 2.753-.384 3.441-1.073.464-.464.705-1.072.705-1.825 0-.544-.16-.976-.512-1.328-.465-.464-1.218-.704-2.226-.704zM558.308 21.803h1.185l2.417 6.115 5.715-6.115h1.408l-3.009 11.205h-1.281l2.434-9.076-5.683 6.002h-.063l-2.449-5.986-2.434 9.06H555.3l3.008-11.205zM581.575 26.461c0 1.809-.784 3.585-2.032 4.85-1.169 1.152-2.737 1.905-4.498 1.905-2.897 0-4.914-2.129-4.914-4.866 0-1.809.784-3.57 2.049-4.834 1.152-1.153 2.722-1.905 4.482-1.905 2.897 0 4.913 2.129 4.913 4.85zm-3.024 4.113a5.841 5.841 0 0 0 1.696-4.065c0-2.113-1.425-3.729-3.665-3.729-1.361 0-2.546.576-3.426 1.473a5.784 5.784 0 0 0-1.696 4.065c0 2.113 1.424 3.729 3.665 3.729 1.36 0 2.545-.592 3.426-1.473zM585.684 21.803h2.705c1.873 0 3.394.528 4.37 1.489.8.8 1.216 1.856 1.216 3.217 0 1.712-.624 3.217-1.761 4.37-1.345 1.345-3.361 2.129-5.746 2.129h-3.794l3.01-11.205zm2.625 1.168h-1.665l-2.385 8.868h2.369c1.873 0 3.489-.624 4.626-1.761.896-.896 1.408-2.113 1.408-3.489 0-1.057-.336-1.889-.944-2.481-.737-.736-1.921-1.137-3.409-1.137zM598.052 21.803h8.02l-.32 1.152h-6.755l-1.024 3.826h6.034l-.32 1.152h-6.018l-1.057 3.922h6.835l-.305 1.152h-8.1l3.01-11.204zM608.5 21.803h1.265l-2.689 10.036h6.307l-.32 1.168h-7.571l3.008-11.204zM558.308 41.003h2.705c1.873 0 3.394.528 4.37 1.489.801.8 1.217 1.856 1.217 3.217 0 1.712-.624 3.217-1.761 4.37-1.345 1.345-3.361 2.129-5.746 2.129h-3.794l3.009-11.205zm2.625 1.169h-1.664l-2.385 8.868h2.368c1.873 0 3.49-.624 4.626-1.761.896-.896 1.409-2.113 1.409-3.489 0-1.057-.336-1.889-.944-2.481-.737-.737-1.921-1.137-3.41-1.137zM570.676 41.003h8.02l-.32 1.152h-6.755l-1.024 3.826h6.034l-.32 1.152h-6.018l-1.057 3.922h6.835l-.305 1.152h-8.1l3.01-11.204zM581.124 41.003h3.505c1.409 0 2.481.336 3.202 1.041.512.528.8 1.216.8 2.081 0 1.073-.384 1.953-1.057 2.625-.944.96-2.528 1.472-4.466 1.472h-2.656l-1.073 3.986h-1.265l3.01-11.205zm3.457 1.169h-2.513l-1.312 4.93h2.417c1.568 0 2.753-.384 3.441-1.073.464-.464.704-1.072.704-1.825 0-.544-.16-.976-.512-1.328-.464-.464-1.216-.704-2.225-.704zM591.796 41.003h1.265l-2.689 10.036h6.307l-.32 1.168h-7.571l3.008-11.204zM609.671 45.661c0 1.809-.784 3.585-2.032 4.85-1.169 1.152-2.737 1.905-4.498 1.905-2.897 0-4.914-2.129-4.914-4.866 0-1.809.784-3.57 2.049-4.834 1.152-1.153 2.722-1.905 4.482-1.905 2.896 0 4.913 2.129 4.913 4.85zm-3.025 4.114a5.841 5.841 0 0 0 1.696-4.065c0-2.113-1.425-3.729-3.665-3.729-1.361 0-2.546.576-3.426 1.473a5.784 5.784 0 0 0-1.696 4.065c0 2.113 1.424 3.729 3.665 3.729 1.361-.001 2.546-.593 3.426-1.473zM613.908 47.694l-2.77-6.691h1.409l2.24 5.65 5.282-5.65h1.617l-6.562 6.899-1.153 4.306h-1.28l1.217-4.514zM623.331 41.003h1.185l2.417 6.115 5.715-6.115h1.408l-3.009 11.205h-1.281l2.434-9.076-5.683 6.002h-.063l-2.449-5.986-2.434 9.06h-1.248l3.008-11.205zM637.235 41.003h8.02l-.32 1.152h-6.755l-1.024 3.826h6.034l-.32 1.152h-6.018l-1.057 3.922h6.835l-.305 1.152h-8.1l3.01-11.204zM647.684 41.003h1.168l4.562 9.092 2.449-9.092h1.232l-3.01 11.205h-1.008l-4.675-9.3-2.496 9.3h-1.233l3.011-11.205zM662.597 42.172h-3.777l.32-1.168h8.819l-.32 1.168h-3.777l-2.689 10.036h-1.265l2.689-10.036z"/><g><path d="M302.301 90.514l.882-1.044c1.314 1.188 2.575 1.783 4.321 1.783 1.692 0 2.81-.9 2.81-2.143v-.036c0-1.17-.631-1.837-3.277-2.395-2.899-.63-4.231-1.566-4.231-3.637v-.036c0-1.98 1.747-3.439 4.142-3.439 1.836 0 3.15.522 4.429 1.548l-.828 1.098c-1.17-.954-2.341-1.368-3.637-1.368-1.639 0-2.683.9-2.683 2.035v.036c0 1.188.648 1.855 3.421 2.449 2.809.612 4.105 1.638 4.105 3.565v.036c0 2.161-1.801 3.565-4.304 3.565-1.999 0-3.637-.667-5.15-2.017zM314.452 87.075v-7.329h1.422v7.238c0 2.719 1.459 4.25 3.854 4.25 2.322 0 3.799-1.405 3.799-4.159v-7.329h1.423v7.22c0 3.673-2.106 5.582-5.258 5.582-3.116.001-5.24-1.908-5.24-5.473zM328.312 79.747h4.718c2.845 0 4.717 1.513 4.717 3.998v.036c0 2.719-2.269 4.124-4.951 4.124h-3.061v4.447h-1.423V79.747zm4.537 6.86c2.089 0 3.457-1.116 3.457-2.773v-.036c0-1.8-1.351-2.737-3.385-2.737h-3.187v5.546h3.115zM340.336 79.747h9.11v1.297h-7.688v4.303h6.878v1.296h-6.878v4.411h7.778v1.296h-9.2V79.747zM352.396 79.747h5.42c1.548 0 2.791.468 3.583 1.261.612.612.972 1.494.972 2.484v.036c0 2.089-1.44 3.313-3.421 3.673l3.871 5.149h-1.746l-3.655-4.897h-3.601v4.897h-1.423V79.747zm5.293 6.428c1.891 0 3.24-.972 3.24-2.593v-.036c0-1.548-1.188-2.485-3.223-2.485h-3.889v5.114h3.872zM363.969 79.747h1.585l4.483 10.857 4.501-10.857h1.53l-5.419 12.694h-1.261l-5.419-12.694zM378.676 79.747h1.422v12.604h-1.422V79.747zM382.959 90.514l.882-1.044c1.314 1.188 2.575 1.783 4.321 1.783 1.692 0 2.81-.9 2.81-2.143v-.036c0-1.17-.631-1.837-3.277-2.395-2.898-.63-4.231-1.566-4.231-3.637v-.036c0-1.98 1.747-3.439 4.142-3.439 1.836 0 3.15.522 4.429 1.548l-.828 1.098c-1.17-.954-2.341-1.368-3.637-1.368-1.639 0-2.683.9-2.683 2.035v.036c0 1.188.647 1.855 3.421 2.449 2.809.612 4.105 1.638 4.105 3.565v.036c0 2.161-1.801 3.565-4.304 3.565-2 0-3.637-.667-5.15-2.017zM395.308 79.747h9.11v1.297h-7.688v4.303h6.878v1.296h-6.878v4.411h7.778v1.296h-9.2V79.747zM407.367 79.747h4.375c3.962 0 6.698 2.719 6.698 6.266v.036c0 3.547-2.736 6.302-6.698 6.302h-4.375V79.747zm1.423 1.314v9.975h2.952c3.188 0 5.222-2.161 5.222-4.952v-.036c0-2.791-2.034-4.988-5.222-4.988h-2.952zM426.844 79.747h1.422v11.29h7.094v1.314h-8.516V79.747zM437.985 79.747h9.11v1.297h-7.688v4.303h6.878v1.296h-6.878v4.411h7.778v1.296h-9.2V79.747zM454.708 79.657h1.333l5.743 12.694h-1.53l-1.477-3.331h-6.859l-1.495 3.331h-1.458l5.743-12.694zm3.512 8.066l-2.863-6.41-2.881 6.41h5.744zM464.265 79.747h5.42c1.548 0 2.791.468 3.583 1.261.612.612.972 1.494.972 2.484v.036c0 2.089-1.44 3.313-3.421 3.673l3.871 5.149h-1.746l-3.655-4.897h-3.601v4.897h-1.423V79.747zm5.294 6.428c1.891 0 3.24-.972 3.24-2.593v-.036c0-1.548-1.188-2.485-3.223-2.485h-3.889v5.114h3.872zM477.278 79.747h1.332l7.94 10.101V79.747h1.387v12.604h-1.135l-8.138-10.335v10.335h-1.387V79.747zM491.624 79.747h1.423v12.604h-1.423V79.747zM496.736 79.747h1.332l7.94 10.101V79.747h1.386v12.604h-1.134l-8.139-10.335v10.335h-1.386V79.747zM510.398 86.085v-.036c0-3.457 2.538-6.518 6.319-6.518 2.125 0 3.439.612 4.7 1.674l-.919 1.081c-.972-.846-2.053-1.44-3.835-1.44-2.791 0-4.789 2.358-4.789 5.167v.036c0 3.007 1.926 5.239 4.987 5.239 1.44 0 2.772-.558 3.637-1.26v-3.133h-3.835v-1.278h5.203v5.023a7.638 7.638 0 0 1-5.059 1.927c-3.96 0-6.409-2.881-6.409-6.482z"/></g><g><path class="st0" d="M203.08 84.819h54.369"/><path class="st1" d="M255.639 91.006l10.715-6.187-10.715-6.188z"/><g><path class="st0" d="M553.255 84.819h54.37"/><path class="st1" d="M605.815 91.006l10.715-6.187-10.715-6.188z"/></g></g><g><path d="M46.907 226.351l.735-.87c1.095.99 2.145 1.485 3.6 1.485 1.41 0 2.34-.75 2.34-1.785v-.03c0-.975-.525-1.529-2.73-1.994-2.415-.525-3.525-1.306-3.525-3.03v-.03c0-1.649 1.455-2.864 3.45-2.864 1.53 0 2.625.435 3.689 1.289l-.69.915c-.975-.795-1.95-1.14-3.03-1.14-1.365 0-2.235.75-2.235 1.695v.029c0 .99.54 1.545 2.85 2.04 2.34.511 3.419 1.365 3.419 2.97v.03c0 1.8-1.5 2.97-3.584 2.97-1.664 0-3.029-.555-4.289-1.68zM59.747 218.476h-3.525v-1.095h8.25v1.095h-3.525v9.405h-1.2v-9.405zM66.692 217.382h4.515c1.29 0 2.325.391 2.985 1.05.51.511.81 1.245.81 2.07v.03c0 1.739-1.2 2.76-2.85 3.06l3.225 4.29h-1.455l-3.045-4.08h-3v4.08h-1.185v-10.5zm4.41 5.354c1.575 0 2.7-.81 2.7-2.159v-.03c0-1.29-.99-2.07-2.685-2.07h-3.24v4.26h3.225zM77.372 223.486v-6.104h1.185v6.03c0 2.265 1.215 3.539 3.21 3.539 1.935 0 3.165-1.17 3.165-3.465v-6.104h1.185v6.015c0 3.061-1.755 4.65-4.38 4.65-2.595 0-4.365-1.59-4.365-4.561zM88.457 222.662v-.03c0-2.97 2.22-5.43 5.31-5.43 1.905 0 3.045.675 4.095 1.665l-.81.87c-.885-.841-1.875-1.44-3.3-1.44-2.325 0-4.065 1.89-4.065 4.305v.03c0 2.43 1.755 4.335 4.065 4.335 1.44 0 2.385-.555 3.39-1.515l.78.765c-1.095 1.109-2.295 1.845-4.2 1.845-3.031-.001-5.265-2.386-5.265-5.4zM102.766 218.476h-3.525v-1.095h8.25v1.095h-3.525v9.405h-1.2v-9.405zM109.546 223.486v-6.104h1.185v6.03c0 2.265 1.215 3.539 3.21 3.539 1.935 0 3.165-1.17 3.165-3.465v-6.104h1.185v6.015c0 3.061-1.755 4.65-4.38 4.65-2.595 0-4.365-1.59-4.365-4.561zM121.096 217.382h4.515c1.29 0 2.324.391 2.984 1.05.51.511.811 1.245.811 2.07v.03c0 1.739-1.2 2.76-2.851 3.06l3.226 4.29h-1.455l-3.045-4.08h-3v4.08h-1.185v-10.5zm4.409 5.354c1.575 0 2.7-.81 2.7-2.159v-.03c0-1.29-.99-2.07-2.685-2.07h-3.24v4.26h3.225zM131.942 217.382h7.589v1.08h-6.404v3.585h5.729v1.08h-5.729v3.675h6.479v1.08h-7.664v-10.5zM141.992 217.382h3.645c3.3 0 5.58 2.265 5.58 5.22v.03c0 2.955-2.28 5.25-5.58 5.25h-3.645v-10.5zm1.184 1.094v8.311h2.46c2.655 0 4.35-1.801 4.35-4.125v-.03c0-2.325-1.694-4.155-4.35-4.155h-2.46z"/></g><g><path d="M35.815 319.437v-6.104H37v6.03c0 2.265 1.215 3.539 3.21 3.539 1.935 0 3.165-1.17 3.165-3.465v-6.104h1.185v6.015c0 3.061-1.755 4.65-4.38 4.65-2.595 0-4.365-1.59-4.365-4.561zM47.365 313.333h1.11l6.615 8.415v-8.415h1.155v10.5H55.3l-6.779-8.61v8.61h-1.155v-10.5zM58.525 322.302l.735-.87c1.095.99 2.145 1.485 3.6 1.485 1.41 0 2.34-.75 2.34-1.785v-.03c0-.975-.525-1.529-2.73-1.994-2.415-.525-3.525-1.306-3.525-3.03v-.03c0-1.649 1.455-2.864 3.45-2.864 1.53 0 2.625.435 3.689 1.289l-.69.915c-.975-.795-1.95-1.14-3.03-1.14-1.365 0-2.235.75-2.235 1.695v.029c0 .99.54 1.545 2.85 2.04 2.34.511 3.419 1.365 3.419 2.97v.03c0 1.8-1.5 2.97-3.584 2.97-1.664 0-3.029-.555-4.289-1.68zM71.365 314.427H67.84v-1.095h8.25v1.095h-3.525v9.405h-1.2v-9.405zM78.31 313.333h4.515c1.29 0 2.325.391 2.985 1.05.51.511.81 1.245.81 2.07v.03c0 1.739-1.2 2.76-2.85 3.06l3.225 4.29H85.54l-3.045-4.08h-3v4.08H78.31v-10.5zm4.409 5.354c1.575 0 2.7-.81 2.7-2.159v-.03c0-1.29-.99-2.07-2.685-2.07h-3.24v4.26h3.225zM88.989 319.437v-6.104h1.185v6.03c0 2.265 1.215 3.539 3.21 3.539 1.935 0 3.165-1.17 3.165-3.465v-6.104h1.185v6.015c0 3.061-1.755 4.65-4.38 4.65-2.595 0-4.365-1.59-4.365-4.561zM100.074 318.613v-.03c0-2.97 2.22-5.43 5.31-5.43 1.905 0 3.045.675 4.095 1.665l-.81.87c-.885-.841-1.875-1.44-3.3-1.44-2.325 0-4.065 1.89-4.065 4.305v.03c0 2.43 1.755 4.335 4.065 4.335 1.44 0 2.385-.555 3.39-1.515l.78.765c-1.095 1.109-2.295 1.845-4.2 1.845-3.03-.001-5.265-2.385-5.265-5.4zM114.384 314.427h-3.524v-1.095h8.249v1.095h-3.524v9.405h-1.2v-9.405zM121.165 319.437v-6.104h1.185v6.03c0 2.265 1.215 3.539 3.21 3.539 1.935 0 3.165-1.17 3.165-3.465v-6.104h1.185v6.015c0 3.061-1.755 4.65-4.38 4.65-2.596 0-4.365-1.59-4.365-4.561zM132.714 313.333h4.515c1.29 0 2.324.391 2.984 1.05.51.511.811 1.245.811 2.07v.03c0 1.739-1.2 2.76-2.851 3.06l3.226 4.29h-1.455l-3.045-4.08h-3v4.08h-1.185v-10.5zm4.41 5.354c1.575 0 2.7-.81 2.7-2.159v-.03c0-1.29-.99-2.07-2.685-2.07h-3.24v4.26h3.225zM143.559 313.333h7.589v1.08h-6.404v3.585h5.729v1.08h-5.729v3.675h6.479v1.08h-7.664v-10.5zM153.609 313.333h3.645c3.3 0 5.58 2.265 5.58 5.22v.03c0 2.955-2.28 5.25-5.58 5.25h-3.645v-10.5zm1.184 1.094v8.311h2.46c2.655 0 4.35-1.801 4.35-4.125v-.03c0-2.325-1.694-4.155-4.35-4.155h-2.46z"/></g><g><path d="M338.735 194.088l.841-.436 3.866 7.452-.842.437-3.865-7.453zM344.293 192.192l-2.502 1.297-.403-.777 5.855-3.037.403.777-2.502 1.298 3.462 6.676-.852.441-3.461-6.675zM348.982 188.773l5.387-2.794.397.767-4.546 2.357 1.32 2.545 4.066-2.11.397.768-4.066 2.109 1.353 2.608 4.6-2.386.397.767-5.439 2.821-3.866-7.452zM356.279 184.988l.852-.441 4.824 2.659.606-5.476.852-.442 3.865 7.453-.842.437-3.131-6.037-.644 5.401-.043.021-4.78-2.573 3.126 6.025-.819.425-3.866-7.452z"/></g><g><path d="M379.49 194.127l2.789-1.446c1.682-.873 3.253-.553 4.016.916l.011.021c.833 1.607-.077 3.134-1.663 3.957l-1.811.938 1.364 2.63-.841.436-3.865-7.452zm4.786 2.665c1.235-.641 1.702-1.721 1.193-2.699l-.011-.021c-.553-1.064-1.638-1.205-2.841-.581l-1.885.978 1.701 3.279 1.843-.956zM386.766 190.352l3.205-1.662c.914-.475 1.793-.578 2.505-.353.55.174 1.033.585 1.337 1.171l.011.021c.641 1.234.164 2.4-.896 3.221l3.868 1.857-1.032.535-3.663-1.774-2.13 1.104 1.503 2.896-.842.437-3.866-7.453zm5.101 2.178c1.117-.58 1.617-1.568 1.121-2.527l-.012-.021c-.475-.916-1.465-1.104-2.667-.481l-2.3 1.193 1.568 3.023 2.29-1.187zM394.701 186.237l.841-.437 3.866 7.452-.842.437-3.865-7.452zM399.5 188.504l-.012-.021c-1.093-2.108-.423-4.672 1.771-5.81 1.352-.702 2.41-.642 3.52-.325l-.255.915c-.938-.271-1.861-.331-2.872.193-1.65.855-2.19 2.837-1.301 4.552l.011.021c.895 1.725 2.842 2.431 4.481 1.58 1.022-.53 1.488-1.272 1.849-2.323l.835.256c-.368 1.19-.949 2.154-2.302 2.855-2.151 1.117-4.616.246-5.725-1.893zM405.907 180.425l5.388-2.795.397.768-4.546 2.357 1.319 2.545 4.067-2.109.397.766-4.067 2.109 1.354 2.609 4.599-2.386.397.767-5.439 2.821-3.866-7.452z"/></g><g><path d="M419.319 194.127l.84-.437 3.463 6.676 4.195-2.176.402.777-5.035 2.611-3.865-7.451zM427.26 194.763l-.011-.021c-1.066-2.055-.455-4.656 1.812-5.832s4.713-.188 5.778 1.867l.011.021c1.066 2.055.455 4.655-1.812 5.831-2.267 1.178-4.713.19-5.778-1.866zm6.729-3.49l-.012-.021c-.878-1.693-2.83-2.437-4.534-1.553-1.703.884-2.21 2.876-1.333 4.568l.012.021c.878 1.693 2.831 2.436 4.535 1.553 1.703-.882 2.21-2.874 1.332-4.568zM436.474 189.985l-.011-.021c-1.094-2.107-.423-4.672 1.77-5.81 1.353-.701 2.41-.642 3.52-.325l-.255.916c-.938-.271-1.86-.332-2.872.192-1.649.856-2.189 2.838-1.3 4.552l.011.021c.895 1.725 2.841 2.431 4.481 1.58 1.021-.529 1.488-1.271 1.848-2.323l.835.256c-.368 1.19-.949 2.155-2.301 2.856-2.152 1.116-4.617.246-5.726-1.894zM445.933 188.362l.979-.508.58 1.117-.979.508-.58-1.117z"/></g><g><path d="M453.831 194.127l5.354-2.778.403.777-4.515 2.342 1.381 2.662 4.035-2.093.397.766-4.035 2.093 1.685 3.248-.841.436-3.864-7.453zM460.979 190.419l3.204-1.662c.916-.475 1.794-.578 2.506-.353.55.174 1.033.585 1.337 1.17l.011.021c.641 1.235.164 2.401-.896 3.222l3.869 1.857-1.033.535-3.663-1.774-2.13 1.104 1.502 2.896-.84.437-3.867-7.453zm5.101 2.177c1.117-.58 1.618-1.568 1.121-2.527l-.011-.021c-.475-.916-1.465-1.104-2.668-.481l-2.3 1.193 1.568 3.023 2.29-1.187zM471.569 184.858l.788-.408 7.289 5.744-.905.469-1.895-1.516-4.057 2.104.139 2.428-.862.447-.497-9.268zm4.55 3.693l-3.658-2.912.263 4.673 3.395-1.761zM479.279 186.426l-2.247-4.333.84-.436 2.221 4.279c.834 1.607 2.165 2.065 3.581 1.331 1.374-.712 1.816-1.996.972-3.625l-2.248-4.333.841-.436 2.215 4.27c1.126 2.172.466 3.945-1.397 4.912-1.843.955-3.684.479-4.778-1.629zM485.394 177.756l2.587-1.342c2.343-1.215 4.795-.447 5.883 1.65l.011.021c1.088 2.098.314 4.565-2.027 5.78l-2.588 1.342-3.866-7.451zm1.244.34l3.06 5.898 1.746-.906c1.885-.977 2.425-2.879 1.569-4.529l-.012-.021c-.855-1.65-2.732-2.325-4.617-1.348l-1.746.906z"/></g><g><ellipse class="st2" cx="82.049" cy="184.624" rx="11.078" ry="3.052"/><path class="st3" d="M93.127 190.201c0 1.686-4.96 3.052-11.078 3.052s-11.078-1.366-11.078-3.052M93.127 195.777c0 1.686-4.96 3.052-11.078 3.052s-11.078-1.366-11.078-3.052M93.127 201.353c0 1.686-4.96 3.052-11.078 3.052s-11.078-1.366-11.078-3.052M70.981 184.681v16.974M93.108 184.681v16.974"/><ellipse class="st2" cx="116.299" cy="184.624" rx="11.078" ry="3.052"/><path class="st3" d="M127.377 190.201c0 1.686-4.96 3.052-11.078 3.052s-11.078-1.366-11.078-3.052M127.377 195.777c0 1.686-4.96 3.052-11.078 3.052s-11.078-1.366-11.078-3.052M127.377 201.353c0 1.686-4.96 3.052-11.078 3.052s-11.078-1.366-11.078-3.052M105.231 184.681v16.974M127.358 184.681v16.974"/><ellipse class="st2" cx="99.174" cy="155.374" rx="11.078" ry="3.052"/><path class="st3" d="M110.252 160.951c0 1.686-4.96 3.052-11.078 3.052s-11.078-1.366-11.078-3.052M110.252 166.527c0 1.686-4.96 3.052-11.078 3.052s-11.078-1.366-11.078-3.052M110.252 172.103c0 1.686-4.96 3.052-11.078 3.052s-11.078-1.366-11.078-3.052M88.106 155.431v16.974M110.233 155.431v16.974M93.127 191.076h12.095M83.417 181.333l7.344-7.344M115.052 181.333l-7.343-7.344"/></g><path class="st4" d="M481.982 211.43c1.843 0 3.337 1.15 3.337 2.569v85.641c0 1.419-1.494 2.569-3.337 2.569H337.173c-1.843 0-3.337-1.15-3.337-2.569v-85.641c0-1.419 1.494-2.569 3.337-2.569h144.809zM371.707 211.43v90.778M409.577 211.43v90.778M447.448 211.43v90.778M333.837 234.124h151.481M333.837 256.819h151.481M333.837 279.514h151.481"/><g><path d="M461.902 219.382h.888l5.289 6.729v-6.729h.923v8.396h-.755l-5.421-6.885v6.885h-.924v-8.396zM461.902 241.382h.888l5.289 6.729v-6.729h.923v8.396h-.755l-5.421-6.885v6.885h-.924v-8.396z"/><path class="st5" d="M464.528 268.455l-3.489-5.073h1.151l2.83 4.197 2.854-4.197h1.104l-3.49 5.062v3.334h-.96v-3.323z"/><path d="M461.902 285.382h.888l5.289 6.729v-6.729h.923v8.396h-.755l-5.421-6.885v6.885h-.924v-8.396z"/></g><g><path d="M352.619 219.321h.888l3.825 8.456h-1.02l-.983-2.219h-4.569l-.995 2.219h-.972l3.826-8.456zm2.339 5.373l-1.907-4.27-1.919 4.27h3.826zM349.513 241.382h3.574c.959 0 1.715.275 2.194.743.348.36.54.804.54 1.344v.023c0 1.092-.672 1.655-1.331 1.943.995.3 1.799.875 1.799 2.026v.024c0 1.439-1.212 2.291-3.047 2.291h-3.729v-8.394zm5.348 2.218c0-.827-.659-1.367-1.858-1.367h-2.555v2.891h2.482c1.14 0 1.931-.516 1.931-1.5v-.024zm-1.762 2.363h-2.65v2.963h2.818c1.271 0 2.062-.563 2.062-1.499v-.024c0-.912-.767-1.44-2.23-1.44zM352.619 263.321h.888l3.825 8.456h-1.02l-.983-2.219h-4.569l-.995 2.219h-.972l3.826-8.456zm2.339 5.373l-1.907-4.27-1.919 4.27h3.826zM352.619 285.321h.888l3.825 8.456h-1.02l-.983-2.219h-4.569l-.995 2.219h-.972l3.826-8.456zm2.339 5.373l-1.907-4.27-1.919 4.27h3.826z"/></g><g><path d="M385.699 220.305l-1.583.491-.228-.768 2.051-.708h.695v8.456h-.936v-7.471zM388.771 223.603v-.024c0-2.351 1.403-4.341 3.562-4.341s3.526 1.967 3.526 4.317v.023c0 2.351-1.392 4.342-3.551 4.342-2.168.001-3.537-1.966-3.537-4.317zm6.106 0v-.024c0-1.835-1.008-3.478-2.567-3.478-1.57 0-2.555 1.606-2.555 3.454v.023c0 1.835 1.008 3.479 2.579 3.479s2.543-1.619 2.543-3.454zM383.271 248.422l.695-.611c.636.791 1.416 1.247 2.447 1.247 1.02 0 1.835-.647 1.835-1.631v-.024c0-1.043-.972-1.619-2.351-1.619h-.54l-.192-.563 2.651-2.986h-4.103v-.852h5.361v.695l-2.639 2.927c1.464.12 2.771.827 2.771 2.362v.024c0 1.499-1.247 2.53-2.807 2.53-1.401 0-2.445-.612-3.128-1.499zM390.782 248.59l.624-.684c.731.707 1.535 1.151 2.386 1.151 1.2 0 2.027-.804 2.027-1.859v-.023c0-1.044-.863-1.764-2.087-1.764-.708 0-1.271.216-1.763.48l-.636-.42.239-4.09h4.834v.875H392.4l-.18 2.687c.491-.216.959-.371 1.654-.371 1.632 0 2.903.959 2.903 2.566v.023c0 1.644-1.248 2.759-2.999 2.759-1.197.001-2.24-.575-2.996-1.33zM386.396 264.305l-1.583.491-.228-.768 2.051-.708h.695v8.456h-.936v-7.471zM389.3 271.046l3.047-2.687c1.283-1.151 1.751-1.8 1.751-2.639 0-.983-.779-1.607-1.691-1.607-.959 0-1.583.504-2.255 1.439l-.695-.504c.756-1.127 1.547-1.787 3.022-1.787 1.511 0 2.603 1.008 2.603 2.375v.023c0 1.224-.647 1.979-2.123 3.263l-2.242 1.991h4.449v.863H389.3v-.73zM386.925 291.522v-.024c0-.995.719-1.703 1.727-2.062-.779-.359-1.439-.96-1.439-1.931v-.024c0-1.295 1.332-2.219 2.867-2.219s2.866.924 2.866 2.219v.024c0 .971-.66 1.571-1.439 1.931.995.372 1.728 1.056 1.728 2.051v.024c0 1.427-1.367 2.387-3.154 2.387s-3.156-.972-3.156-2.376zm5.348-.024v-.023c0-.936-.972-1.596-2.194-1.596-1.224 0-2.195.66-2.195 1.596v.023c0 .84.815 1.571 2.195 1.571 1.379 0 2.194-.72 2.194-1.571zm-.275-3.934v-.023c0-.828-.828-1.452-1.919-1.452-1.092 0-1.919.612-1.919 1.452v.023c0 .911.852 1.535 1.919 1.535s1.919-.624 1.919-1.535z"/></g><g><path d="M420.457 219.382h.888l5.289 6.729v-6.729h.923v8.396h-.755l-5.422-6.885v6.885h-.923v-8.396zM432.742 224.455l-3.489-5.073h1.151l2.83 4.197 2.854-4.197h1.104l-3.49 5.062v3.334h-.96v-3.323zM420.457 241.382h.888l5.289 6.729v-6.729h.923v8.396h-.755l-5.422-6.885v6.885h-.923v-8.396zM432.742 246.455l-3.489-5.073h1.151l2.83 4.197 2.854-4.197h1.104l-3.49 5.062v3.334h-.96v-3.323zM419.953 267.603v-.024c0-2.374 1.775-4.341 4.246-4.341 1.522 0 2.435.539 3.273 1.331l-.647.695c-.707-.672-1.499-1.151-2.639-1.151-1.858 0-3.25 1.511-3.25 3.442v.023c0 1.943 1.403 3.467 3.25 3.467 1.151 0 1.907-.444 2.711-1.212l.624.612c-.876.887-1.835 1.475-3.358 1.475-2.423.001-4.21-1.907-4.21-4.317zM432.467 263.321h.888l3.825 8.456h-1.02l-.983-2.219h-4.569l-.995 2.219h-.972l3.826-8.456zm2.339 5.373l-1.907-4.27-1.919 4.27h3.826zM420.457 285.382h.888l5.289 6.729v-6.729h.923v8.396h-.755l-5.422-6.885v6.885h-.923v-8.396zM432.742 290.455l-3.489-5.073h1.151l2.83 4.197 2.854-4.197h1.104l-3.49 5.062v3.334h-.96v-3.323z"/></g><g><path class="st6" d="M68.752 295.413v-12.886c0-.724.587-1.31 1.31-1.31h4.046M68.752 259.102v11.167c0 .594.587 1.076 1.31 1.076h9.046M119.534 259.102v10.584c0 .594-.587 1.076-1.31 1.076h-11.115M119.534 295.413v-13.596a1.31 1.31 0 0 0-1.31-1.31h-2.93"/><path class="st6" d="M107.802 273.225a5.528 5.528 0 0 0-9.432-3.916 10.298 10.298 0 0 0-9.342-5.963c-5.687 0-10.297 4.61-10.297 10.297 0 1.516.328 2.956.916 4.252a5.727 5.727 0 0 0 .189 11.451l29.04-.035c3.942-.527 6.987-3.942 6.987-8.028a8.06 8.06 0 0 0-8.061-8.058z"/><path class="st7" d="M78.882 297.277a2.424 2.424 0 0 0-4.135-1.717 4.514 4.514 0 1 0-8.209 3.765 2.51 2.51 0 0 0 .083 5.021l12.733-.015a3.554 3.554 0 0 0 3.063-3.52 3.535 3.535 0 0 0-3.535-3.534zM120.574 297.277a2.424 2.424 0 0 0-4.135-1.717 4.514 4.514 0 1 0-8.209 3.765 2.51 2.51 0 0 0 .083 5.021l12.733-.015a3.554 3.554 0 0 0 3.063-3.52 3.535 3.535 0 0 0-3.535-3.534zM78.882 252.816a2.424 2.424 0 0 0-4.135-1.717 4.514 4.514 0 1 0-8.209 3.765 2.51 2.51 0 0 0 .083 5.021l12.733-.015a3.554 3.554 0 0 0 3.063-3.52 3.535 3.535 0 0 0-3.535-3.534zM120.574 252.816a2.424 2.424 0 0 0-4.135-1.717 4.514 4.514 0 1 0-8.209 3.765 2.51 2.51 0 0 0 .083 5.021l12.733-.015a3.554 3.554 0 0 0 3.063-3.52 3.535 3.535 0 0 0-3.535-3.534z"/></g><path class="st8" d="M154.74 354.984h37.234V148.492c0-5.943-4.817-10.76-10.76-10.76H114.11a10.76 10.76 0 0 1-6.749-2.38l-8.187-7.184-8.187 7.184a10.76 10.76 0 0 1-6.749 2.38H17.135c-5.943 0-10.76 4.817-10.76 10.76v206.492h33.583M464.984 354.984h37.62V148.492c0-5.943-4.817-10.76-10.76-10.76H424.74a10.76 10.76 0 0 1-6.749-2.38l-8.187-7.184-8.187 7.184a10.76 10.76 0 0 1-6.749 2.38h-67.104c-5.943 0-10.76 4.817-10.76 10.76v206.492h40.583"/><g class="st9"><path class="st1" d="M59.612 348.233h1.333l5.744 12.694h-1.53l-1.477-3.331h-6.86l-1.495 3.331h-1.458l5.743-12.694zm3.512 8.067l-2.863-6.409-2.881 6.409h5.744zM69.169 348.323h1.422v11.29h7.094v1.314h-8.517v-12.604zM80.311 348.323h1.422v11.29h7.094v1.314H80.31v-12.604zM96.852 348.323h4.375c3.961 0 6.698 2.72 6.698 6.267v.036c0 3.547-2.737 6.302-6.698 6.302h-4.375v-12.605zm1.422 1.314v9.976h2.953c3.187 0 5.222-2.161 5.222-4.952v-.035c0-2.791-2.035-4.988-5.222-4.988h-2.953zM114.764 348.233h1.333l5.744 12.694h-1.53l-1.477-3.331h-6.86l-1.495 3.331h-1.458l5.743-12.694zm3.511 8.067l-2.863-6.409-2.881 6.409h5.744zM126.031 349.637H121.8v-1.314h9.903v1.314h-4.231v11.29h-1.44v-11.29zM137.408 348.233h1.332l5.744 12.694h-1.531l-1.477-3.331h-6.859l-1.494 3.331h-1.459l5.744-12.694zm3.511 8.067l-2.863-6.409-2.881 6.409h5.744z"/></g><g class="st9"><path class="st1" d="M371.727 348.323h1.44l4.592 6.879 4.591-6.879h1.44v12.604h-1.422v-10.209l-4.592 6.752h-.072l-4.591-6.734v10.191h-1.387v-12.604zM386.792 354.661v-.035c0-3.476 2.611-6.519 6.446-6.519s6.41 3.007 6.41 6.482v.036c0 3.475-2.611 6.518-6.446 6.518s-6.41-3.007-6.41-6.482zm11.38 0v-.035c0-2.863-2.089-5.204-4.97-5.204s-4.934 2.305-4.934 5.168v.036c0 2.862 2.089 5.203 4.97 5.203s4.934-2.305 4.934-5.168zM402.65 348.323h4.375c3.962 0 6.698 2.72 6.698 6.267v.036c0 3.547-2.736 6.302-6.698 6.302h-4.375v-12.605zm1.423 1.314v9.976h2.952c3.188 0 5.222-2.161 5.222-4.952v-.035c0-2.791-2.034-4.988-5.222-4.988h-2.952zM416.727 348.323h9.11v1.297h-7.688v4.304h6.878v1.296h-6.878v4.411h7.778v1.297h-9.201v-12.605zM428.787 348.323h1.422v11.29h7.094v1.314h-8.516v-12.604zM439.1 359.091l.883-1.044c1.314 1.188 2.574 1.782 4.321 1.782 1.692 0 2.809-.9 2.809-2.143v-.036c0-1.17-.63-1.837-3.277-2.395-2.898-.63-4.23-1.566-4.23-3.637v-.036c0-1.98 1.746-3.439 4.141-3.439 1.837 0 3.151.522 4.43 1.549l-.828 1.098c-1.171-.954-2.341-1.368-3.638-1.368-1.638 0-2.683.9-2.683 2.035v.035c0 1.188.648 1.855 3.421 2.449 2.809.612 4.105 1.639 4.105 3.565v.035c0 2.161-1.801 3.565-4.303 3.565-2 .001-3.639-.665-5.151-2.015z"/></g><g><path class="st4" d="M775.72 206.43a2.569 2.569 0 0 1 2.569 2.569v85.641a2.569 2.569 0 0 1-2.569 2.569H664.241a2.569 2.569 0 0 1-2.569-2.569v-85.641a2.569 2.569 0 0 1 2.569-2.569H775.72z"/><path class="st5" d="M704.055 243.39l-.63 2.836-1.366 2.835-1.575 2.206-1.681 1.234 3.388 5.042 2.179-1.024 3.046-4.202 1.995-5.146.946-4.096z"/><path class="st10" d="M692.35 226.441c9.029 0 16.374 7.345 16.374 16.374s-7.345 16.374-16.374 16.374-16.374-7.345-16.374-16.374 7.346-16.374 16.374-16.374m0-2c-10.148 0-18.374 8.226-18.374 18.374s8.226 18.374 18.374 18.374c10.148 0 18.374-8.226 18.374-18.374s-8.226-18.374-18.374-18.374z"/><path class="st10" d="M692.35 232.632c5.615 0 10.184 4.568 10.184 10.184S697.966 253 692.35 253s-10.184-4.568-10.184-10.184 4.569-10.184 10.184-10.184m0-2c-6.729 0-12.184 5.455-12.184 12.184S685.621 255 692.35 255s12.184-5.455 12.184-12.184-5.455-12.184-12.184-12.184z"/><path class="st11" d="M709.438 242.812h-5.042"/><path class="st3" d="M692.344 225.403v6.105M697.228 225.692l-4.674 4.726M700.746 227.215l-4.726 4.621M703.687 229.053l-4.306 4.411M706.208 231.416l-4.516 4.622M708.151 234.41l-4.674 4.673M709.359 238.086l-4.595 4.542M698.331 252.317l3.781 5.514"/><path class="st2" d="M764.05 277.525a6.122 6.122 0 1 0-11.038 3.648l.002.002c.083.112 4.914 6.12 4.914 6.12l4.916-6.122h-.005c.308-.413.568-.865.764-1.349.289-.71.447-1.486.447-2.299zm-6.121 1.359a1.405 1.405 0 1 1 .001-2.809 1.405 1.405 0 0 1-.001 2.809z"/><path class="st10" d="M692.53 269.173v18.055h-18.055v-18.055h18.055m2-2h-22.055v22.055h22.055v-22.055zM717.406 269.173v18.055h-18.055v-18.055h18.055m2-2h-22.055v22.055h22.055v-22.055zM742.08 268.882v18.055h-18.055v-18.055h18.055m2-2h-22.055v22.055h22.055v-22.055zM766.956 268.882v18.055h-18.055v-18.055h18.055m2-2h-22.055v22.055h22.055v-22.055z"/><path class="st11" d="M674.574 286.886s2.679-1.862 5.032-3.93 4.991-2.923 7.058-3.636c2.068-.713 6.185-3.606 6.999-4.099"/><path class="st3" d="M680.408 282.306s.986-.356 2.185-.267 1.831.303 3.072.998c1.241.695 3.219.196 4.166-.303s1.347-.767 2.02-.704c.673.063.619-.032 1.742.67M673.421 271.545s2.543.063 3.438 3.333c.375 1.372-.738 2.382-.228 3.323.625 1.154 1.645 1.28 2.157 1.721.662.572.451 1.856-.653 4.248"/><path class="st11" d="M682.945 272.581l-.992-.191s-.61-.076-.763.191c-.153.267-.343.496.229 1.297.572.801.343.992.343 1.488s0 1.526 1.183 1.412 1.411-1.564 1.755-2.022c.343-.458.61-.954 1.297-1.297.687-.343 1.2-.631 1.134-1.078-.066-.448-1.478-.791-1.783-.829-.305-.038-.61.134-.877.582-.267.447-1.167.516-1.526.447z"/><path class="st12" d="M698.965 271.191l1.143 1.189"/><path fill="none" stroke="#333" stroke-width="2" stroke-linejoin="round" stroke-dasharray="2.0017,1.0008" d="M700.801 273.101l1.734 1.804"/><path class="st12" d="M702.882 275.265l1.143 1.189 1.582-.462"/><path class="st14" d="M707.207 275.524l8.799-2.571"/><path class="st12" d="M716.806 272.72l1.583-.463"/><g><path class="st12" d="M718.389 285.952l-1.22-1.109"/><path fill="none" stroke="#333" stroke-width="2" stroke-linejoin="round" stroke-dasharray="2.4175,1.2088" d="M716.274 284.03l-2.236-2.032"/><path class="st12" d="M713.591 281.591l-1.22-1.109-1.582.463"/><path class="st14" d="M709.189 281.412l-8.8 2.571"/><path class="st12" d="M699.589 284.216l-1.582.463"/></g><circle class="st10" cx="728.712" cy="273.367" r="1.555"/><circle class="st10" cx="737.664" cy="276.478" r="1.555"/><circle class="st10" cx="730.735" cy="283.279" r="1.555"/><g><path class="st10" d="M727.782 253.308h.005-.005m-.006 1.001l3.183.019-.026 4.396-3.183-.019.026-4.396m-.994-2.006a1 1 0 0 0-1 .994l-.038 6.396a1 1 0 0 0 .994 1.006l5.183.031h.006a1 1 0 0 0 1-.994l.038-6.396a1 1 0 0 0-.994-1.006l-5.183-.031h-.006z"/></g><g><path class="st10" d="M751.396 250.384h.005-.005m-.006.999l3.183.019-.044 7.368-3.183-.019.044-7.368m-.994-2.005a1 1 0 0 0-1 .994l-.055 9.368a1 1 0 0 0 .994 1.006l5.183.031h.006a1 1 0 0 0 1-.994l.055-9.368a1 1 0 0 0-.994-1.006l-5.183-.031h-.006z"/></g><g><path class="st10" d="M762.031 240.514h.005-.005m-.005 1l3.183.019-.102 17.259-3.183-.019.102-17.259m-.995-2.006a1 1 0 0 0-1 .994l-.114 19.259a1 1 0 0 0 .994 1.006l5.183.031h.006a1 1 0 0 0 1-.994l.114-19.259a1 1 0 0 0-.994-1.006l-5.183-.031h-.006z"/></g><g><path class="st10" d="M739.666 246.963h.005-.005m-.006 1l3.183.019-.064 10.765-3.183-.019.064-10.765m-.994-2.006a1 1 0 0 0-1 .994l-.076 12.765a1 1 0 0 0 .994 1.006l5.183.031h.006a1 1 0 0 0 1-.994l.076-12.765a1 1 0 0 0-.994-1.006l-5.183-.031h-.006z"/></g><path class="st3" d="M731.402 243.203l7.727-6.495M743.544 237.022l6.374 4.145M754.646 239.523l6.862-8.159"/><g><path class="st5" d="M729.326 247.959a2.872 2.872 0 0 1-2.87-2.869 2.873 2.873 0 0 1 2.87-2.87 2.872 2.872 0 0 1 2.869 2.87 2.872 2.872 0 0 1-2.869 2.869z"/><path class="st10" d="M729.326 243.22c1.031 0 1.87.839 1.87 1.87s-.839 1.87-1.87 1.87c-1.031 0-1.87-.839-1.87-1.87s.839-1.87 1.87-1.87m0-2a3.87 3.87 0 1 0 0 7.74 3.87 3.87 0 0 0 0-7.74z"/></g><g><path class="st5" d="M752.938 244.972a2.872 2.872 0 0 1-2.87-2.869 2.873 2.873 0 0 1 2.87-2.87 2.872 2.872 0 0 1 2.869 2.87 2.87 2.87 0 0 1-2.869 2.869z"/><path class="st10" d="M752.938 240.233c1.031 0 1.87.839 1.87 1.87s-.839 1.87-1.87 1.87c-1.031 0-1.87-.839-1.87-1.87s.839-1.87 1.87-1.87m0-2a3.87 3.87 0 1 0 0 7.74 3.87 3.87 0 0 0 0-7.74z"/></g><g><path class="st5" d="M763.548 232.001c-1.583 0-2.87-1.287-2.87-2.869s1.287-2.869 2.87-2.869c1.582 0 2.869 1.287 2.869 2.869s-1.287 2.869-2.869 2.869z"/><path class="st10" d="M763.548 227.262c1.031 0 1.87.839 1.87 1.87s-.839 1.87-1.87 1.87c-1.031 0-1.87-.839-1.87-1.87s.839-1.87 1.87-1.87m0-2a3.87 3.87 0 1 0 0 7.74 3.87 3.87 0 0 0 0-7.74z"/></g><g><path class="st5" d="M741.201 238.103a2.872 2.872 0 0 1-2.87-2.869 2.873 2.873 0 0 1 2.87-2.87 2.872 2.872 0 0 1 2.869 2.87 2.872 2.872 0 0 1-2.869 2.869z"/><path class="st10" d="M741.201 233.364c1.031 0 1.87.839 1.87 1.87s-.839 1.87-1.87 1.87c-1.031 0-1.87-.839-1.87-1.87s.839-1.87 1.87-1.87m0-2a3.87 3.87 0 1 0 0 7.74 3.87 3.87 0 0 0 0-7.74z"/></g><g><path class="st11" d="M663.345 218.053h113.742"/></g><path class="st11" d="M668.277 212.808h2.051M674.889 212.808h2.051M681.5 212.808h2.051"/></g><g><path d="M655.02 79.747h4.718c2.845 0 4.717 1.513 4.717 3.998v.036c0 2.719-2.269 4.124-4.951 4.124h-3.061v4.447h-1.423V79.747zm4.537 6.86c2.089 0 3.457-1.116 3.457-2.773v-.036c0-1.8-1.351-2.737-3.385-2.737h-3.187v5.546h3.115zM667.044 79.747h5.419c1.549 0 2.791.468 3.583 1.261.612.612.973 1.494.973 2.484v.036c0 2.089-1.44 3.313-3.421 3.673l3.871 5.149h-1.747l-3.654-4.897h-3.602v4.897h-1.422V79.747zm5.293 6.428c1.891 0 3.241-.972 3.241-2.593v-.036c0-1.548-1.188-2.485-3.223-2.485h-3.89v5.114h3.872zM680.058 79.747h9.11v1.297h-7.688v4.303h6.878v1.296h-6.878v4.411h7.778v1.296h-9.2V79.747zM692.117 79.747h4.375c3.962 0 6.698 2.719 6.698 6.266v.036c0 3.547-2.736 6.302-6.698 6.302h-4.375V79.747zm1.423 1.314v9.975h2.952c3.188 0 5.222-2.161 5.222-4.952v-.036c0-2.791-2.034-4.988-5.222-4.988h-2.952zM706.319 79.747h1.423v12.604h-1.423V79.747zM710.873 86.085v-.036c0-3.565 2.665-6.518 6.374-6.518 2.286 0 3.655.81 4.915 1.999l-.972 1.044c-1.062-1.008-2.251-1.729-3.962-1.729-2.79 0-4.879 2.269-4.879 5.167v.036c0 2.917 2.106 5.204 4.879 5.204 1.729 0 2.863-.667 4.069-1.819l.937.918c-1.314 1.333-2.755 2.215-5.041 2.215-3.637.001-6.32-2.862-6.32-6.481zM728.046 81.061h-4.231v-1.314h9.903v1.314h-4.231v11.29h-1.44v-11.29zM736.505 79.747h1.423v12.604h-1.423V79.747zM741.059 86.085v-.036c0-3.475 2.61-6.518 6.446-6.518 3.835 0 6.409 3.007 6.409 6.482v.036c0 3.475-2.61 6.518-6.445 6.518s-6.41-3.007-6.41-6.482zm11.379 0v-.036c0-2.863-2.088-5.204-4.969-5.204s-4.934 2.305-4.934 5.167v.036c0 2.863 2.089 5.204 4.97 5.204s4.933-2.304 4.933-5.167zM756.917 79.747h1.332l7.94 10.101V79.747h1.387v12.604h-1.135l-8.139-10.335v10.335h-1.386V79.747zM770.308 90.514l.883-1.044c1.314 1.188 2.574 1.783 4.321 1.783 1.692 0 2.809-.9 2.809-2.143v-.036c0-1.17-.63-1.837-3.277-2.395-2.898-.63-4.23-1.566-4.23-3.637v-.036c0-1.98 1.746-3.439 4.141-3.439 1.837 0 3.151.522 4.43 1.548l-.828 1.098c-1.171-.954-2.341-1.368-3.638-1.368-1.638 0-2.683.9-2.683 2.035v.036c0 1.188.648 1.855 3.421 2.449 2.81.612 4.105 1.638 4.105 3.565v.036c0 2.161-1.801 3.565-4.303 3.565-2 0-3.639-.667-5.151-2.017z"/></g><path class="st8" d="M776.16 354.984h36.62V148.492c0-5.943-4.817-10.76-10.76-10.76h-67.104c-2.455 0-4.836-.84-6.749-2.38l-8.187-7.184-8.187 7.184a10.76 10.76 0 0 1-6.749 2.38H637.94c-5.943 0-10.76 4.817-10.76 10.76v206.492h38.583"/><g class="st9"><path class="st1" d="M677.203 348.323h5.365c1.44 0 2.575.415 3.295 1.117a2.8 2.8 0 0 1 .811 2.017v.035c0 1.639-1.008 2.485-1.998 2.917 1.494.45 2.7 1.314 2.7 3.043v.036c0 2.161-1.818 3.439-4.573 3.439h-5.6v-12.604zm8.03 3.331c0-1.242-.99-2.052-2.791-2.052h-3.835v4.339h3.728c1.71 0 2.898-.774 2.898-2.251v-.036zm-2.646 3.548h-3.979v4.447h4.231c1.908 0 3.097-.847 3.097-2.251v-.036c0-1.368-1.153-2.16-3.349-2.16zM690.001 355.652v-7.329h1.422v7.238c0 2.719 1.459 4.25 3.854 4.25 2.322 0 3.799-1.405 3.799-4.159v-7.329h1.423v7.221c0 3.673-2.106 5.582-5.258 5.582-3.116 0-5.24-1.909-5.24-5.474zM703.032 359.091l.882-1.044c1.314 1.188 2.575 1.782 4.321 1.782 1.692 0 2.81-.9 2.81-2.143v-.036c0-1.17-.631-1.837-3.277-2.395-2.898-.63-4.231-1.566-4.231-3.637v-.036c0-1.98 1.747-3.439 4.142-3.439 1.836 0 3.15.522 4.429 1.549l-.828 1.098c-1.17-.954-2.341-1.368-3.637-1.368-1.639 0-2.683.9-2.683 2.035v.035c0 1.188.647 1.855 3.421 2.449 2.809.612 4.105 1.639 4.105 3.565v.035c0 2.161-1.801 3.565-4.304 3.565-1.999.001-3.637-.665-5.15-2.015zM715.507 348.323h1.422v12.604h-1.422v-12.604zM720.618 348.323h1.332l7.94 10.102v-10.102h1.387v12.604h-1.135l-8.138-10.335v10.335h-1.387v-12.604zM734.838 348.323h9.11v1.297h-7.688v4.304h6.878v1.296h-6.878v4.411h7.778v1.297h-9.201v-12.605zM746.069 359.091l.883-1.044c1.314 1.188 2.574 1.782 4.321 1.782 1.692 0 2.809-.9 2.809-2.143v-.036c0-1.17-.63-1.837-3.277-2.395-2.898-.63-4.23-1.566-4.23-3.637v-.036c0-1.98 1.746-3.439 4.141-3.439 1.837 0 3.151.522 4.43 1.549l-.828 1.098c-1.171-.954-2.341-1.368-3.638-1.368-1.638 0-2.683.9-2.683 2.035v.035c0 1.188.648 1.855 3.421 2.449 2.809.612 4.105 1.639 4.105 3.565v.035c0 2.161-1.801 3.565-4.304 3.565-1.998.001-3.637-.665-5.15-2.015zM757.409 359.091l.883-1.044c1.314 1.188 2.574 1.782 4.321 1.782 1.692 0 2.809-.9 2.809-2.143v-.036c0-1.17-.63-1.837-3.277-2.395-2.898-.63-4.231-1.566-4.231-3.637v-.036c0-1.98 1.747-3.439 4.142-3.439 1.837 0 3.151.522 4.43 1.549l-.828 1.098c-1.171-.954-2.341-1.368-3.638-1.368-1.639 0-2.683.9-2.683 2.035v.035c0 1.188.648 1.855 3.421 2.449 2.809.612 4.105 1.639 4.105 3.565v.035c0 2.161-1.801 3.565-4.304 3.565-1.998.001-3.637-.665-5.15-2.015zM676.375 380.691l.882-1.045c1.314 1.188 2.575 1.783 4.321 1.783 1.692 0 2.81-.9 2.81-2.144v-.035c0-1.171-.631-1.837-3.277-2.396-2.898-.63-4.231-1.566-4.231-3.637v-.036c0-1.98 1.747-3.438 4.142-3.438 1.836 0 3.15.521 4.429 1.548l-.828 1.099c-1.17-.954-2.341-1.368-3.637-1.368-1.639 0-2.683.9-2.683 2.034v.036c0 1.188.647 1.854 3.421 2.448 2.809.612 4.105 1.639 4.105 3.565v.036c0 2.16-1.801 3.565-4.304 3.565-2 .002-3.637-.665-5.15-2.015zM692.126 377.54l-5.239-7.616h1.729l4.249 6.302 4.285-6.302h1.657l-5.24 7.599v5.005h-1.44v-4.988zM699.612 380.691l.883-1.045c1.314 1.188 2.574 1.783 4.321 1.783 1.692 0 2.809-.9 2.809-2.144v-.035c0-1.171-.63-1.837-3.277-2.396-2.898-.63-4.23-1.566-4.23-3.637v-.036c0-1.98 1.746-3.438 4.141-3.438 1.837 0 3.151.521 4.43 1.548l-.828 1.099c-1.171-.954-2.341-1.368-3.638-1.368-1.638 0-2.683.9-2.683 2.034v.036c0 1.188.648 1.854 3.421 2.448 2.81.612 4.105 1.639 4.105 3.565v.036c0 2.16-1.801 3.565-4.303 3.565-1.999.002-3.638-.665-5.151-2.015zM715.021 371.238h-4.23v-1.314h9.902v1.314h-4.231v11.289h-1.44v-11.289zM723.355 369.924h9.11v1.296h-7.688v4.304h6.878v1.297h-6.878v4.411h7.778v1.296h-9.2v-12.604zM735.415 369.924h1.44l4.592 6.878 4.591-6.878h1.44v12.604h-1.422v-10.209l-4.592 6.752h-.072l-4.591-6.733v10.19h-1.387v-12.604zM750.211 380.691l.882-1.045c1.314 1.188 2.575 1.783 4.321 1.783 1.692 0 2.809-.9 2.809-2.144v-.035c0-1.171-.63-1.837-3.276-2.396-2.899-.63-4.231-1.566-4.231-3.637v-.036c0-1.98 1.746-3.438 4.142-3.438 1.836 0 3.15.521 4.429 1.548l-.828 1.099c-1.17-.954-2.341-1.368-3.637-1.368-1.639 0-2.684.9-2.684 2.034v.036c0 1.188.648 1.854 3.422 2.448 2.809.612 4.104 1.639 4.104 3.565v.036c0 2.16-1.8 3.565-4.303 3.565-2 .002-3.638-.665-5.15-2.015z"/></g></g></svg>